<svg id="Paris_Citysets" data-name="Paris Citysets" xmlns="http://www.w3.org/2000/svg" width="32" height="32" viewBox="0 0 32 32"><defs><style>.cls-1{fill-rule:evenodd;}</style></defs><title>louvre</title><path id="louvre" class="cls-1" d="M26,10a4,4,0,0,0-2,.55V7.42L16,2.84,8,7.42v3.13A4,4,0,0,0,2,14V28H30V14A4,4,0,0,0,26,10ZM16,5.15,21,8H11ZM10,10H22V20l-4.59-4.59L16,14l-1.41,1.41L10,20Zm8.08,8.91L17,20l-1,1-2.08-2.08L16,16.82ZM6,12a2,2,0,0,1,2,2H4A2,2,0,0,1,6,12ZM4,16H8v6L4,26ZM6.83,26l1.68-1.68L10.2,26Zm3.1-3.1,2.53-2.53,2.08,2.08L12,25ZM13.81,26l2.14-2.14L18.09,26Zm3.56-3.55,2.12-2.13,2.3,2.3-2.12,2.13ZM21.24,26l2-2,2,2ZM28,26l-4-4V16h4ZM24,14a2,2,0,0,1,4,0Z"/></svg>